<svg
    xmlns="http://www.w3.org/2000/svg"
    width="30"
    height="30"
    fill="none"
    aria-hidden="true"
  >
    <path
      fill="#FFC107"
      d="M29.708 12.062H28.5V12H15v6h8.477c-1.236 3.493-4.56 6-8.477 6a9 9 0 0 1 0-18c2.294 0 4.381.865 5.97 2.28l4.244-4.243C22.534 1.54 18.95 0 15 0 6.716 0 0 6.716 0 15c0 8.284 6.716 15 15 15 8.284 0 15-6.716 15-15 0-1.006-.104-1.988-.292-2.938Z"
    />
    <path
      fill="#FF3D00"
      d="m1.73 8.018 4.928 3.614A8.996 8.996 0 0 1 15 6c2.294 0 4.381.865 5.97 2.28l4.244-4.243C22.534 1.54 18.95 0 15 0 9.238 0 4.242 3.253 1.73 8.018Z"
    />
    <path
      fill="#4CAF50"
      d="M15 30c3.875 0 7.395-1.483 10.057-3.894l-4.643-3.929A8.932 8.932 0 0 1 15 24c-3.902 0-7.214-2.488-8.462-5.96l-4.892 3.77C4.13 26.666 9.17 30 15 30Z"
    />
    <path
      fill="#1976D2"
      d="M29.708 12.062H28.5V12H15v6h8.477a9.03 9.03 0 0 1-3.065 4.178l.002-.001 4.643 3.928C24.728 26.404 30 22.5 30 15c0-1.006-.104-1.988-.292-2.938Z"
    />
  </svg>